<?xml version="1.0" encoding="utf-8"?>
<svg xmlns:dc="http://purl.org/dc/elements/1.1/" 
    xmlns:rdf="http://www.w3.org/1999/02/22-rdf-syntax-ns#" 
    xmlns:svg="http://www.w3.org/2000/svg" 
    xmlns="http://www.w3.org/2000/svg" xml:space="preserve" enable-background="new 0 0 414 414" viewBox="0 0 414 414" height="414px" width="414px" y="0px" x="0px" id="Layer_1" version="1.1">
    <defs id="defs3343" />
    <g transform="matrix(0.9995682,0,0,0.9995682,-30.67104,52.216605)" id="g3019">
        <path d="M162.423,25.163   L69.1,114.051l49.771,49.771l42.976-43.265c83.815,85.069,148.96,151.207,229.89,233.345c22.405,23.231,61.421-8.36,36.435-35.182   c-85.505-83.33-144.773-143.477-233.856-230.842l52.818-53.129L162.423,25.163z" fill="#fdd008" id="hammer_head" />
        <g transform="matrix(0.83334944,0,0,0.83334944,89.122595,-182.30111)" id="g3852">
            <path d="M84.184,548.176    C284.533,734.039,609.2,398.896,194.279,156.021l0,0c308.774,343.052,12.344,448.213-94.99,342.388l-5.409-4.463    c-4.382,4.922-8.773,9.831-13.152,14.759c-8.313-7.849-21.231-10.155-25.209,3.266c-16.337-1.129-25.926,7.924-30.204,24.886    c-30.392,20.136-63.295,37.803-82.208,69.421c-10.807,33.446,10.568,47.994,34.754,45.223    c39.643-16.47,51.896-52.068,73.113-81.433c14.995-4.777,27.701-11.196,30.029-24.847" fill="#fdd008" id="sickle_handle" />
        </g>
    </g>
</svg>